<mxfile host="app.diagrams.net" modified="2023-12-09T18:16:40.210Z" agent="Mozilla/5.0 (Windows NT 10.0; Win64; x64) AppleWebKit/537.36 (KHTML, like Gecko) Chrome/119.0.0.0 Safari/537.36" etag="in7tbwKBC_v1xQNeaYKI" version="22.1.7" type="device">
  <diagram name="Page-1" id="n6BByCJTRdUzg_E2fNvC">
    <mxGraphModel dx="880" dy="478" grid="1" gridSize="10" guides="1" tooltips="1" connect="1" arrows="1" fold="1" page="1" pageScale="1" pageWidth="827" pageHeight="1169" math="0" shadow="0">
      <root>
        <mxCell id="0" />
        <mxCell id="1" parent="0" />
        <mxCell id="qlNw6Sple6F51iWNQv-O-3" value="" style="edgeStyle=orthogonalEdgeStyle;rounded=0;orthogonalLoop=1;jettySize=auto;html=1;" edge="1" parent="1" source="qlNw6Sple6F51iWNQv-O-1" target="qlNw6Sple6F51iWNQv-O-2">
          <mxGeometry relative="1" as="geometry" />
        </mxCell>
        <mxCell id="qlNw6Sple6F51iWNQv-O-1" value="Start" style="ellipse;fillColor=#ffe6cc;strokeColor=#d79b00;labelBackgroundColor=none;labelBorderColor=none;fontSize=13;" vertex="1" parent="1">
          <mxGeometry x="330" y="10" width="120" height="50" as="geometry" />
        </mxCell>
        <mxCell id="qlNw6Sple6F51iWNQv-O-5" value="" style="edgeStyle=orthogonalEdgeStyle;rounded=0;orthogonalLoop=1;jettySize=auto;html=1;" edge="1" parent="1" source="qlNw6Sple6F51iWNQv-O-2" target="qlNw6Sple6F51iWNQv-O-4">
          <mxGeometry relative="1" as="geometry" />
        </mxCell>
        <mxCell id="qlNw6Sple6F51iWNQv-O-2" value="Open browser and search for FLEX" style="shape=parallelogram;perimeter=parallelogramPerimeter;fixedSize=1;fillColor=#ffe6cc;strokeColor=#d79b00;labelBackgroundColor=none;labelBorderColor=none;fontSize=13;" vertex="1" parent="1">
          <mxGeometry x="300" y="100" width="180" height="50" as="geometry" />
        </mxCell>
        <mxCell id="qlNw6Sple6F51iWNQv-O-7" value="" style="edgeStyle=orthogonalEdgeStyle;rounded=0;orthogonalLoop=1;jettySize=auto;html=1;" edge="1" parent="1" source="qlNw6Sple6F51iWNQv-O-4" target="qlNw6Sple6F51iWNQv-O-6">
          <mxGeometry relative="1" as="geometry" />
        </mxCell>
        <mxCell id="qlNw6Sple6F51iWNQv-O-4" value="LOG IN TO ID" style="shape=parallelogram;perimeter=parallelogramPerimeter;fixedSize=1;fillColor=#ffe6cc;strokeColor=#d79b00;labelBackgroundColor=none;labelBorderColor=none;fontSize=13;" vertex="1" parent="1">
          <mxGeometry x="300" y="190" width="180" height="40" as="geometry" />
        </mxCell>
        <mxCell id="qlNw6Sple6F51iWNQv-O-11" value="" style="edgeStyle=orthogonalEdgeStyle;rounded=0;orthogonalLoop=1;jettySize=auto;html=1;" edge="1" parent="1" source="qlNw6Sple6F51iWNQv-O-6" target="qlNw6Sple6F51iWNQv-O-10">
          <mxGeometry relative="1" as="geometry" />
        </mxCell>
        <mxCell id="qlNw6Sple6F51iWNQv-O-6" value="Open ATTENDANCE tab" style="shape=parallelogram;perimeter=parallelogramPerimeter;fixedSize=1;fillColor=#ffe6cc;strokeColor=#d79b00;labelBackgroundColor=none;labelBorderColor=none;fontSize=13;" vertex="1" parent="1">
          <mxGeometry x="300" y="260" width="180" height="40" as="geometry" />
        </mxCell>
        <mxCell id="qlNw6Sple6F51iWNQv-O-13" value="" style="edgeStyle=orthogonalEdgeStyle;rounded=0;orthogonalLoop=1;jettySize=auto;html=1;" edge="1" parent="1" source="qlNw6Sple6F51iWNQv-O-10" target="qlNw6Sple6F51iWNQv-O-12">
          <mxGeometry relative="1" as="geometry" />
        </mxCell>
        <mxCell id="qlNw6Sple6F51iWNQv-O-10" value="counter =1" style="rounded=1;fillColor=#ffe6cc;strokeColor=#d79b00;labelBackgroundColor=none;labelBorderColor=none;fontSize=13;" vertex="1" parent="1">
          <mxGeometry x="330" y="330" width="120" height="60" as="geometry" />
        </mxCell>
        <mxCell id="qlNw6Sple6F51iWNQv-O-15" value="" style="edgeStyle=orthogonalEdgeStyle;rounded=0;orthogonalLoop=1;jettySize=auto;html=1;" edge="1" parent="1" source="qlNw6Sple6F51iWNQv-O-12" target="qlNw6Sple6F51iWNQv-O-14">
          <mxGeometry relative="1" as="geometry" />
        </mxCell>
        <mxCell id="qlNw6Sple6F51iWNQv-O-12" value="while&#xa;counter!=total_students" style="rhombus;rounded=1;fillColor=#ffe6cc;strokeColor=#d79b00;labelBackgroundColor=none;labelBorderColor=none;fontSize=13;" vertex="1" parent="1">
          <mxGeometry x="290" y="420" width="190" height="110" as="geometry" />
        </mxCell>
        <mxCell id="qlNw6Sple6F51iWNQv-O-28" style="edgeStyle=orthogonalEdgeStyle;rounded=0;orthogonalLoop=1;jettySize=auto;html=1;exitX=0.5;exitY=1;exitDx=0;exitDy=0;entryX=0.5;entryY=0;entryDx=0;entryDy=0;" edge="1" parent="1" source="qlNw6Sple6F51iWNQv-O-14" target="qlNw6Sple6F51iWNQv-O-16">
          <mxGeometry relative="1" as="geometry" />
        </mxCell>
        <mxCell id="qlNw6Sple6F51iWNQv-O-31" value="&lt;b&gt;YES&lt;/b&gt;" style="edgeLabel;html=1;align=center;verticalAlign=middle;resizable=0;points=[];" vertex="1" connectable="0" parent="qlNw6Sple6F51iWNQv-O-28">
          <mxGeometry x="0.4667" y="-2" relative="1" as="geometry">
            <mxPoint as="offset" />
          </mxGeometry>
        </mxCell>
        <mxCell id="qlNw6Sple6F51iWNQv-O-14" value="if &#xa;present" style="rhombus;rounded=1;fillColor=#ffe6cc;strokeColor=#d79b00;labelBackgroundColor=none;labelBorderColor=none;fontSize=13;" vertex="1" parent="1">
          <mxGeometry x="320" y="560" width="130" height="70" as="geometry" />
        </mxCell>
        <mxCell id="qlNw6Sple6F51iWNQv-O-16" value="Present Marked" style="shape=parallelogram;perimeter=parallelogramPerimeter;fixedSize=1;rounded=1;arcSize=13;fillColor=#ffe6cc;strokeColor=#d79b00;labelBackgroundColor=none;labelBorderColor=none;fontSize=13;" vertex="1" parent="1">
          <mxGeometry x="160" y="650" width="120" height="60" as="geometry" />
        </mxCell>
        <mxCell id="qlNw6Sple6F51iWNQv-O-19" value="Absent marked" style="shape=parallelogram;perimeter=parallelogramPerimeter;fixedSize=1;rounded=1;fillColor=#ffe6cc;strokeColor=#d79b00;labelBackgroundColor=none;labelBorderColor=none;fontSize=13;" vertex="1" parent="1">
          <mxGeometry x="480" y="650" width="120" height="60" as="geometry" />
        </mxCell>
        <mxCell id="qlNw6Sple6F51iWNQv-O-33" value="" style="edgeStyle=orthogonalEdgeStyle;rounded=0;orthogonalLoop=1;jettySize=auto;html=1;" edge="1" parent="1" source="qlNw6Sple6F51iWNQv-O-24" target="qlNw6Sple6F51iWNQv-O-32">
          <mxGeometry relative="1" as="geometry" />
        </mxCell>
        <mxCell id="qlNw6Sple6F51iWNQv-O-24" value="counter++" style="rounded=1;fillColor=#ffe6cc;strokeColor=#d79b00;labelBackgroundColor=none;labelBorderColor=none;fontSize=13;" vertex="1" parent="1">
          <mxGeometry x="325" y="750" width="120" height="60" as="geometry" />
        </mxCell>
        <mxCell id="qlNw6Sple6F51iWNQv-O-26" style="edgeStyle=orthogonalEdgeStyle;rounded=0;orthogonalLoop=1;jettySize=auto;html=1;exitX=0.5;exitY=1;exitDx=0;exitDy=0;entryX=0.642;entryY=0.033;entryDx=0;entryDy=0;entryPerimeter=0;" edge="1" parent="1" source="qlNw6Sple6F51iWNQv-O-19" target="qlNw6Sple6F51iWNQv-O-24">
          <mxGeometry relative="1" as="geometry" />
        </mxCell>
        <mxCell id="qlNw6Sple6F51iWNQv-O-27" style="edgeStyle=orthogonalEdgeStyle;rounded=0;orthogonalLoop=1;jettySize=auto;html=1;exitX=0.5;exitY=1;exitDx=0;exitDy=0;entryX=0.392;entryY=-0.067;entryDx=0;entryDy=0;entryPerimeter=0;" edge="1" parent="1" source="qlNw6Sple6F51iWNQv-O-16" target="qlNw6Sple6F51iWNQv-O-24">
          <mxGeometry relative="1" as="geometry" />
        </mxCell>
        <mxCell id="qlNw6Sple6F51iWNQv-O-29" style="edgeStyle=orthogonalEdgeStyle;rounded=0;orthogonalLoop=1;jettySize=auto;html=1;exitX=0.5;exitY=1;exitDx=0;exitDy=0;entryX=0.575;entryY=-0.05;entryDx=0;entryDy=0;entryPerimeter=0;" edge="1" parent="1" source="qlNw6Sple6F51iWNQv-O-14" target="qlNw6Sple6F51iWNQv-O-19">
          <mxGeometry relative="1" as="geometry" />
        </mxCell>
        <mxCell id="qlNw6Sple6F51iWNQv-O-30" value="&lt;b&gt;NO&lt;/b&gt;" style="edgeLabel;html=1;align=center;verticalAlign=middle;resizable=0;points=[];" vertex="1" connectable="0" parent="qlNw6Sple6F51iWNQv-O-29">
          <mxGeometry x="0.457" y="1" relative="1" as="geometry">
            <mxPoint as="offset" />
          </mxGeometry>
        </mxCell>
        <mxCell id="qlNw6Sple6F51iWNQv-O-35" value="" style="edgeStyle=orthogonalEdgeStyle;rounded=0;orthogonalLoop=1;jettySize=auto;html=1;" edge="1" parent="1" source="qlNw6Sple6F51iWNQv-O-32" target="qlNw6Sple6F51iWNQv-O-34">
          <mxGeometry relative="1" as="geometry" />
        </mxCell>
        <mxCell id="qlNw6Sple6F51iWNQv-O-32" value="LOG OUT" style="rounded=1;fillColor=#ffe6cc;strokeColor=#d79b00;labelBackgroundColor=none;labelBorderColor=none;fontSize=13;" vertex="1" parent="1">
          <mxGeometry x="325" y="850" width="120" height="60" as="geometry" />
        </mxCell>
        <mxCell id="qlNw6Sple6F51iWNQv-O-34" value="END" style="ellipse;rounded=1;fillColor=#ffe6cc;strokeColor=#d79b00;labelBackgroundColor=none;labelBorderColor=none;fontSize=13;" vertex="1" parent="1">
          <mxGeometry x="345" y="980" width="80" height="80" as="geometry" />
        </mxCell>
      </root>
    </mxGraphModel>
  </diagram>
</mxfile>
